<svg height="512pt" viewBox="0 0 512 512" width="512pt" xmlns="http://www.w3.org/2000/svg"><path d="m512 256c0 141.386719-114.613281 256-256 256s-256-114.613281-256-256 114.613281-256 256-256 256 114.613281 256 256zm0 0" fill="#b7092b"/><path d="m396.609375 204.613281c-.269531 0-.539063.015625-.8125.019531-13.757813-21.671874-37.949219-36.070312-65.523437-36.070312-33.925782 0-62.746094 21.789062-73.28125 52.132812-10.347657-9.953124-24.398438-16.082031-39.890626-16.082031-8.699218 0-16.941406 1.941407-24.335937 5.394531-14.1875-15.59375-34.644531-25.382812-57.390625-25.382812-42.839844 0-77.566406 34.730469-77.566406 77.570312 0 42.839844 34.726562 77.566407 77.566406 77.566407 22.746094 0 43.203125-9.789063 57.390625-25.382813 7.394531 3.457032 15.636719 5.394532 24.335937 5.394532 21.324219 0 39.925782-11.601563 49.878907-28.828126 14.050781 19.8125 37.15625 32.753907 63.292969 32.753907 14.332031 0 27.75-3.902344 39.269531-10.679688 8.070312 4.304688 17.28125 6.753907 27.066406 6.753907 31.800781 0 57.582031-25.78125 57.582031-57.582032 0-31.800781-25.78125-57.578125-57.582031-57.578125zm0 0" fill="#85e7ff"/><path d="m43.171875 398.296875c14.34375 21.40625 31.832031 40.523437 51.800781 56.703125h322.058594c19.96875-16.179688 37.457031-35.296875 51.796875-56.703125zm0 0" fill="#d9eafc"/><path d="m75.332031 273.5c-8.28125 0-15-6.714844-15-15v-203.125c0-30.535156 24.84375-55.375 55.375-55.375 18.144531 0 35.148438 8.898438 45.492188 23.800781l40.125 57.8125c4.722656 6.808594 3.035156 16.152344-3.773438 20.878907-6.804687 4.722656-16.152343 3.035156-20.875-3.773438l-40.121093-57.8125c-4.738282-6.828125-12.53125-10.90625-20.847657-10.90625-13.992187 0-25.375 11.382812-25.375 25.375v203.125c0 8.285156-6.714843 15-15 15zm0 0" fill="#ffd00d"/><path d="m151.34375 30.644531c-8.105469-11.675781-21.425781-18.644531-35.636719-18.644531-23.917969 0-43.375 19.457031-43.375 43.375v217.824219c.96875.195312 1.972657.300781 3 .300781 8.285157 0 15-6.714844 15-15v-203.125c0-13.992188 11.386719-25.375 25.375-25.375 8.3125 0 16.105469 4.078125 20.847657 10.90625l40.121093 57.8125c4.722657 6.808594 14.070313 8.496094 20.875 3.769531.855469-.59375 1.632813-1.261719 2.320313-1.988281zm0 0" fill="#ffaf10"/><path d="m18.332031 351.277344c10.304688 25.675781 24.648438 49.289062 42.242188 70.066406 8.160156 3.414062 17.117187 5.304688 26.515625 5.304688h337.820312c9.398438 0 18.355469-1.890626 26.515625-5.304688 17.59375-20.777344 31.9375-44.390625 42.242188-70.066406v-95.277344h-475.335938zm0 0" fill="#c3ddf4"/><path d="m98.332031 357.890625v-101.890625h-80v95.277344c10.304688 25.675781 24.648438 49.289062 42.242188 70.066406 8.160156 3.414062 17.117187 5.304688 26.515625 5.304688h80c-37.972656 0-68.757813-30.785157-68.757813-68.757813zm0 0" fill="#aec1ed"/><path d="m503.996094 282.003906h-495.992188c-4.421875 0-8.003906-3.582031-8.003906-8v-36.007812c0-4.417969 3.582031-8 8.003906-8h495.992188c4.421875 0 8.003906 3.582031 8.003906 8v36.007812c0 4.417969-3.582031 8-8.003906 8zm0 0" fill="#d9eafc"/><path d="m80 274.003906v-36.003906c0-4.421875 3.582031-8.003906 8.003906-8.003906h-80c-4.421875 0-8.003906 3.582031-8.003906 8.003906v36.003906c0 4.417969 3.582031 8 8.003906 8h80c-4.421875 0-8.003906-3.582031-8.003906-8zm0 0" fill="#c3ddf4"/><path d="m201.078125 59.109375c-8.148437-13.359375-25.585937-17.578125-38.941406-9.429687-13.359375 8.152343-17.578125 25.589843-9.425781 38.945312 8.148437 13.355469 25.585937 17.578125 38.941406 9.425781 13.359375-8.148437 17.578125-25.585937 9.425781-38.941406zm0 0" fill="#ff9518"/><path d="m228.09375 77.78125-71.136719 43.40625c-7.070312 4.316406-16.300781 2.078125-20.617187-4.992188-4.316406-7.070312-2.078125-16.300781 4.992187-20.617187l71.136719-43.40625c7.070312-4.316406 16.300781-2.078125 20.617188 4.992187 4.3125 7.070313 2.078124 16.300782-4.992188 20.617188zm0 0" fill="#ffd00d"/><path d="m170.484375 95.359375c-4.3125-7.070313-2.078125-16.300781 4.992187-20.617187l-34.144531 20.835937c-7.074219 4.3125-9.308593 13.542969-4.992187 20.617187 4.316406 7.070313 13.546875 9.304688 20.617187 4.992188l34.144531-20.835938c-7.070312 4.316407-16.300781 2.082032-20.617187-4.992187zm0 0" fill="#ffaf10"/><path d="m256.597656 95.53125-96.890625 59.121094c-7.070312 4.316406-16.300781 2.078125-20.617187-4.992188-4.316406-7.070312-2.078125-16.300781 4.992187-20.617187l96.886719-59.117188c7.070312-4.316406 16.304688-2.082031 20.617188 4.988281 4.316406 7.074219 2.082031 16.304688-4.988282 20.617188zm0 0" fill="#ffaf10"/><path d="m173.234375 128.824219c-4.3125-7.070313-2.078125-16.300781 4.992187-20.617188l-34.144531 20.835938c-7.070312 4.316406-9.304687 13.546875-4.992187 20.617187 4.316406 7.074219 13.546875 9.308594 20.621094 4.992188l34.144531-20.835938c-7.074219 4.316406-16.304688 2.082032-20.621094-4.992187zm0 0" fill="#ff9518"/><path d="m398.574219 392.332031h-127.699219c-3.914062 0-7.089844-3.175781-7.089844-7.089843v-155.484376c0-3.917968 3.175782-7.09375 7.089844-7.09375h127.699219c3.917969 0 7.09375 3.175782 7.09375 7.09375v155.484376c0 3.917968-3.175781 7.089843-7.09375 7.089843zm0 0" fill="#5dc1d8"/><path d="m313.785156 385.242188v-155.484376c0-3.917968 3.175782-7.09375 7.089844-7.09375h-50c-3.914062 0-7.089844 3.175782-7.089844 7.09375v155.484376c0 3.914062 3.175782 7.089843 7.089844 7.089843h50c-3.914062 0-7.089844-3.171875-7.089844-7.089843zm0 0" fill="#28a5a5"/><path d="m263.785156 319.667969h141.882813v25.332031h-141.882813zm0 0" fill="#fff"/><path d="m263.785156 319.667969h50v25.332031h-50zm0 0" fill="#d9eafc"/></svg>