<svg id="Capa_1" enable-background="new 0 0 512 512" height="512" viewBox="0 0 512 512" width="512" xmlns="http://www.w3.org/2000/svg"><path d="m512 256c0 7.7-.34 15.32-1.01 22.85-2.39 27.09-9.01 52.96-19.18 76.95-3.83 9.04-8.16 17.82-12.97 26.29-10 17.63-22.03 33.96-35.77 48.67-46.72 49.99-113.25 81.24-187.07 81.24-97.97 0-183.1-55.04-226.12-135.89-19.07-35.82-29.88-76.7-29.88-120.11s10.81-84.29 29.88-120.11c13.35-25.1 30.76-47.71 51.36-66.96 45.75-42.75 107.2-68.93 174.76-68.93 56.23 0 108.23 18.13 150.46 48.86 56.02 40.77 94.87 103.71 103.65 175.92 1.25 10.23 1.89 20.65 1.89 31.22z" fill="#ffece7"/><path d="m267.84 278.85c0-70.22 56.93-127.15 127.15-127.15 50.89 0 94.8 29.9 115.12 73.08-8.78-72.21-47.63-135.15-103.65-175.92-3.8-.19-7.62-.28-11.47-.28-127.18 0-230.27 103.09-230.27 230.27h-43.05v103.24h357.17c17.56-30.96 28.86-65.95 32.15-103.24z" fill="#f6e266"/><g fill="#f1d333"><path d="m160.369 330.8v51.29h-15v-51.29c0-4.14 3.36-7.5 7.5-7.5s7.5 3.36 7.5 7.5z"/><path d="m190.499 349.14v32.95h-15v-32.95c0-4.15 3.36-7.5 7.5-7.5s7.5 3.35 7.5 7.5z"/><path d="m220.629 349.14v32.95h-15v-32.95c0-4.15 3.36-7.5 7.5-7.5s7.5 3.35 7.5 7.5z"/><path d="m250.759 349.14v32.95h-15v-32.95c0-4.15 3.36-7.5 7.5-7.5 4.15 0 7.5 3.35 7.5 7.5z"/><path d="m280.889 330.8v51.29h-15v-51.29c0-4.14 3.36-7.5 7.5-7.5 4.15 0 7.5 3.36 7.5 7.5z"/><path d="m311.029 349.14v32.95h-15v-32.95c0-4.15 3.35-7.5 7.5-7.5 4.14 0 7.5 3.35 7.5 7.5z"/><path d="m341.159 349.14v32.95h-15v-32.95c0-4.15 3.35-7.5 7.5-7.5 4.14 0 7.5 3.35 7.5 7.5z"/><path d="m371.289 349.14v32.95h-15v-32.95c0-4.15 3.36-7.5 7.5-7.5s7.5 3.35 7.5 7.5z"/><path d="m401.419 330.8v51.29h-15v-51.29c0-4.14 3.36-7.5 7.5-7.5s7.5 3.36 7.5 7.5z"/><path d="m431.549 349.14v32.95h-15v-32.95c0-4.15 3.36-7.5 7.5-7.5s7.5 3.35 7.5 7.5z"/><path d="m461.679 349.14v32.95h-15v-32.95c0-4.15 3.36-7.5 7.5-7.5s7.5 3.35 7.5 7.5z"/><path d="m491.81 349.14v6.66c-3.83 9.04-8.16 17.82-12.97 26.29h-2.03v-32.95c0-4.15 3.36-7.5 7.5-7.5 4.15 0 7.5 3.35 7.5 7.5z"/></g><path d="m29.88 17.57v358.54c1.38 2.59 2.8 5.15 4.27 7.68 2.94 5.12 6.06 10.12 9.36 15 3.48 5.18 7.15 10.23 11.01 15.13 3.78 4.84 7.75 9.54 11.89 14.09 46.82 51.59 114.43 83.99 189.59 83.99 73.82 0 140.35-31.25 187.07-81.24zm80 414.43v-221.29l221.29 221.29z" fill="#e7a52e"/><path d="m81.17 127.609h-51.29v-15h51.29c4.14 0 7.5 3.36 7.5 7.5s-3.36 7.5-7.5 7.5z" fill="#df8621"/><path d="m62.83 157.739h-32.95v-15h32.95c4.15 0 7.5 3.36 7.5 7.5s-3.35 7.5-7.5 7.5z" fill="#df8621"/><path d="m62.83 187.869h-32.95v-15h32.95c4.15 0 7.5 3.36 7.5 7.5s-3.35 7.5-7.5 7.5z" fill="#df8621"/><path d="m62.83 217.999h-32.95v-15h32.95c4.15 0 7.5 3.36 7.5 7.5 0 4.15-3.35 7.5-7.5 7.5z" fill="#df8621"/><path d="m81.17 248.129h-51.29v-15h51.29c4.14 0 7.5 3.36 7.5 7.5 0 4.15-3.36 7.5-7.5 7.5z" fill="#df8621"/><path d="m62.83 278.269h-32.95v-15h32.95c4.15 0 7.5 3.35 7.5 7.5 0 4.14-3.35 7.5-7.5 7.5z" fill="#df8621"/><path d="m62.83 308.399h-32.95v-15h32.95c4.15 0 7.5 3.35 7.5 7.5 0 4.14-3.35 7.5-7.5 7.5z" fill="#df8621"/><path d="m62.83 338.529h-32.95v-15h32.95c4.15 0 7.5 3.36 7.5 7.5s-3.35 7.5-7.5 7.5z" fill="#df8621"/><path d="m81.17 368.659h-51.29v-15h51.29c4.14 0 7.5 3.36 7.5 7.5s-3.36 7.5-7.5 7.5z" fill="#df8621"/><path d="m70.33 391.29c0 4.14-3.35 7.5-7.5 7.5h-19.32c-3.3-4.88-6.42-9.88-9.36-15h28.68c4.15 0 7.5 3.36 7.5 7.5z" fill="#df8621"/><path d="m70.33 421.42c0 2.85-1.58 5.32-3.92 6.59-4.14-4.55-8.11-9.25-11.89-14.09h8.31c4.15 0 7.5 3.36 7.5 7.5z" fill="#df8621"/></svg>