<svg height="512pt" viewBox="0 0 512 512" width="512pt" xmlns="http://www.w3.org/2000/svg"><path d="m512 256c0 141.386719-114.613281 256-256 256s-256-114.613281-256-256 114.613281-256 256-256 256 114.613281 256 256zm0 0" fill="#1a2b63"/><path d="m436.472656 256c0 99.671875-80.800781 180.472656-180.472656 180.472656s-180.472656-80.800781-180.472656-180.472656 80.800781-180.472656 180.472656-180.472656 180.472656 80.800781 180.472656 180.472656zm0 0" fill="#293d7c"/><path d="m396.542969 77.675781h-89.144531l-41.328126 48.519531c-4.664062 5.476563-7.402343 12.332032-7.800781 19.515626l-1.519531 27.355468h190.464844l-1.535156-27.367187c-.402344-7.175781-3.144532-14.023438-7.804688-19.496094zm0 0" fill="#c3ddf4"/><path d="m320.269531 153.554688c.003907-.078126.019531-.152344.023438-.226563l.425781-7.617187c.394531-7.183594 3.136719-14.035157 7.800781-19.511719l41.328125-48.523438h-62.449218l-41.328126 48.523438c-4.664062 5.476562-7.40625 12.328125-7.800781 19.511719l-1.519531 27.355468h62.425781zm0 0" fill="#aec1ed"/><path d="m446.121094 153.554688c-.597656-10.613282-9.375-18.914063-20.003906-18.914063h-148.292969c-10.628907 0-19.40625 8.300781-20.003907 18.914063l-20.050781 357.792968c6.019531.421875 12.097657.652344 18.230469.652344 83.566406 0 157.769531-40.046875 204.492188-101.984375zm0 0" fill="#d9eafc"/><path d="m257.820312 153.554688-20.050781 357.792968c6.019531.421875 12.097657.652344 18.230469.652344 15.140625 0 29.972656-1.324219 44.394531-3.847656l19.875-354.597656c.003907-.078126.019531-.152344.023438-.226563l.425781-7.617187c.210938-3.84375 1.113281-7.578126 2.601562-11.070313h-45.492187c-10.632813 0-19.410156 8.300781-20.007813 18.914063zm0 0" fill="#c3ddf4"/><path d="m405.289062 87.675781h-106.636718c-4.554688 0-8.246094-3.691406-8.246094-8.246093v-71.183594c0-4.554688 3.691406-8.246094 8.246094-8.246094h106.636718c4.554688 0 8.246094 3.691406 8.246094 8.246094v71.183594c0 4.554687-3.691406 8.246093-8.246094 8.246093zm0 0" fill="#5dc1d8"/><path d="m340.40625 79.429688v-71.183594c0-4.554688 3.691406-8.246094 8.246094-8.246094h-50c-4.554688 0-8.246094 3.691406-8.246094 8.246094v71.183594c0 4.554687 3.691406 8.246093 8.246094 8.246093h50c-4.554688 0-8.246094-3.691406-8.246094-8.246093zm0 0" fill="#28a5a5"/><path d="m242.339844 429.746094h95.476562c7.824219 0 14.164063-6.34375 14.164063-14.164063v-186.164062c0-7.820313-6.339844-14.164063-14.164063-14.164063h-83.453125zm0 0" fill="#5dc1d8"/><path d="m316.8125 215.253906h-62.449219l-12.023437 214.492188h62.449218zm0 0" fill="#28a5a5"/><path d="m202.371094 42.5v172c0 6.902344-5.59375 12.5-12.5 12.5h-89c-6.902344 0-12.5-5.597656-12.5-12.5v-172c0-6.902344 5.597656-12.5 12.5-12.5h89c6.90625 0 12.5 5.597656 12.5 12.5zm0 0" fill="#fff"/><g fill="#d9eafc"><path d="m88.371094 73.304688h114v15h-114zm0 0"/><path d="m88.371094 121h114v15h-114zm0 0"/><path d="m88.371094 168.695312h114v15h-114zm0 0"/><path d="m100.871094 30c-6.902344 0-12.5 5.597656-12.5 12.5v172c0 6.902344 5.597656 12.5 12.5 12.5h34.5v-197zm0 0"/></g><path d="m165.5 415.441406v80.097656c-17.789062-6.71875-34.628906-15.367187-50.269531-25.679687-18.589844-12.269531-35.492188-26.890625-50.269531-43.449219v-401.410156c0-6.898438 2.800781-13.160156 7.320312-17.679688 4.519531-4.519531 10.777344-7.320312 17.679688-7.320312 13.808593 0 25 11.191406 25 25v324.089844c0 1.070312.089843 2.128906.269531 3.171875.320312 1.929687.929687 3.789062 1.828125 5.507812.101562.230469.222656.449219.351562.660157.359375.640624.761719 1.269531 1.199219 1.878906.121094.179687.25.351562.390625.519531.03125.050781.070312.09375.101562.132813.117188.148437.238282.308593.367188.449218.339844.410156.703125.800782 1.082031 1.179688l39.347657 39.351562c3.582031 3.578125 5.601562 8.4375 5.601562 13.5zm0 0" fill="#ffd00d"/><path d="m165.5 415.441406v80.097656c-17.789062-6.71875-34.628906-15.367187-50.269531-25.679687v-117.71875c.320312 1.960937.941406 3.859375 1.828125 5.628906.113281.21875.230468.441407.351562.660157.359375.640624.761719 1.269531 1.199219 1.878906.121094.171875.261719.351562.390625.519531.03125.050781.070312.09375.101562.132813.117188.160156.238282.308593.367188.449218.339844.410156.703125.800782 1.082031 1.179688l39.347657 39.351562c3.582031 3.578125 5.601562 8.4375 5.601562 13.5zm0 0" fill="#ff9518"/></svg>