<svg id="Capa_1" enable-background="new 0 0 512 512" height="512" viewBox="0 0 512 512" width="512" xmlns="http://www.w3.org/2000/svg"><path d="m512 256c0 57.36-18.87 110.31-50.73 152.99-46.67 62.52-121.25 103.01-205.27 103.01-49.3 0-95.35-13.94-134.42-38.1-27.52-17.01-51.57-39.08-70.85-64.91-31.86-42.68-50.73-95.63-50.73-152.99s18.87-110.31 50.73-152.99c11.08-14.85 23.74-28.46 37.73-40.57 44.9-38.9 103.47-62.44 167.54-62.44s122.64 23.54 167.54 62.44c13.99 12.11 26.65 25.72 37.73 40.57 31.86 42.68 50.73 95.63 50.73 152.99z" fill="#f6e266"/><path d="m461.27 62.44v346.55c-46.67 62.52-121.25 103.01-205.27 103.01s-158.6-40.49-205.27-103.01v-346.55z" fill="#61a2f9"/><path d="m121.58 62.44v411.46c-27.52-17.01-51.57-39.08-70.85-64.91v-346.55z" fill="#4a81f6"/><path d="m461.268 106.79h-366.188c-24.493 0-44.349-19.856-44.349-44.349 0-24.493 19.856-44.349 44.349-44.349h366.188z" fill="#9dc6fb"/><path d="m95.081 86.79c-13.426 0-24.349-10.923-24.349-24.349s10.923-24.349 24.349-24.349h366.188v48.698z" fill="#ffece7"/><path d="m178.205 182.701-33.919-28.931-33.919 28.931v-121.71h67.838z" fill="#dd636e"/><path d="m110.367 60.991h67.838v45.8h-67.838z" fill="#e28086"/><path d="m377.811 321.889c-75.874 3.149-151.748 3.149-227.621 0-7.229-.3-13.279-5.54-14.718-12.631-5.448-26.842-5.448-53.684 0-80.527 1.439-7.091 7.488-12.331 14.718-12.631 75.874-3.149 151.748-3.149 227.621 0 7.229.3 13.279 5.54 14.718 12.631 5.448 26.842 5.448 53.684 0 80.526-1.439 7.092-7.489 12.332-14.718 12.632z" fill="#4a81f6"/><path d="m264 304.251c-36.343 0-73.182-.741-109.555-2.204-4.051-21.95-4.051-44.154 0-66.103 36.373-1.463 73.211-2.204 109.554-2.204s73.182.741 109.555 2.204c4.051 21.95 4.051 44.154 0 66.103-36.372 1.462-73.211 2.204-109.554 2.204z" fill="#ffece7"/><g fill="#595959"><path d="m348.3 264.506h-168.599c-5.234 0-9.477-4.243-9.477-9.477 0-5.234 4.243-9.477 9.477-9.477h168.599c5.234 0 9.477 4.243 9.477 9.477 0 5.233-4.243 9.477-9.477 9.477z"/><path d="m348.3 292.439h-168.599c-5.234 0-9.477-4.243-9.477-9.477 0-5.234 4.243-9.477 9.477-9.477h168.599c5.234 0 9.477 4.243 9.477 9.477 0 5.234-4.243 9.477-9.477 9.477z"/></g></svg>