<svg id="Capa_1" enable-background="new 0 0 501 501" height="512" viewBox="0 0 501 501" width="512" xmlns="http://www.w3.org/2000/svg"><path d="m8.385 218.336c18.221-117.594 120.515-208.037 243.218-207.492 132.603.589 241.352 107.721 243.853 240.345.055 2.923.059 5.834.013 8.733-.002.13-.004.26-.007.39-.369 21.017-17.7 37.779-38.714 37.779h-411.3c-33.781-.001-38.988-67.328-37.063-79.755z" fill="#059bc3"/><path d="m199.5 100.032c0 5.525-4.477 10.003-10 10.003s-10-4.479-10-10.003c0-5.525 4.477-10.003 10-10.003s10 4.479 10 10.003zm25-10.003c-5.523 0-10 4.478-10 10.003s4.477 10.003 10 10.003 10-4.479 10-10.003-4.477-10.003-10-10.003zm35 0c-5.523 0-10 4.478-10 10.003s4.477 10.003 10 10.003 10-4.479 10-10.003-4.477-10.003-10-10.003z" fill="#d3f1f5"/><path d="m284.642 484.332c-29.569 6.442-59.052 7.248-87.333 3.139l-.024-.005c-105.058-20.354-191.688-223.463-191.753-227.544-.021-1.331-.032-2.665-.032-4.001 0-12.781.979-25.334 2.864-37.588 31.438 10.296 69.735 18.39 87.722 22.827 61.164 15.09 65.707 32.129 74.414 43.309 14.25-36.219 96.076-42.931 105.847-45.06 19.942-4.345 65.753-4.088 99.837-11.514 53.997-11.764 96.527-31.268 96.527-31.268 26.315 130.905-57.164 259.185-188.069 287.705z" fill="#69c3da"/><path d="m495.468 259.922c-2.136 133.508-110.994 241.078-244.968 241.078-30.262 0-59.242-5.489-86-15.524-91.706-34.394-157.314-122.202-158.968-225.554 0 0 7.75 4.864 85.656.201 35.651-2.134 66.897 19.809 78.505 51.402 11.46-30.166 40.631-51.603 74.807-51.603h50c20.409 0 65.117 10.003 100 10.003 55.263 0 100.968-10.003 100.968-10.003z" fill="#d3f1f5"/><path d="m144.5 329.945c0 5.525-4.477 10.003-10 10.003h-70c-5.523 0-10-4.479-10-10.003 0-5.525 4.477-10.003 10-10.003h70c5.523-.001 10 4.478 10 10.003zm100 130.042c0 5.525 4.477 10.003 10 10.003h115.376c10.602-5.928 20.717-12.622 30.273-20.006h-145.649c-5.523-.001-10 4.478-10 10.003zm-110-50.016h-74.56c5.66 6.997 11.697 13.676 18.081 20.006h56.479c5.523 0 10-4.478 10-10.003s-4.477-10.003-10-10.003zm280 0c-5.523 0-10 4.479-10 10.003 0 5.525 4.477 10.003 10 10.003h8.479c6.384-6.33 12.421-13.009 18.081-20.006zm-160 20.006h120c5.523 0 10-4.478 10-10.003s-4.477-10.003-10-10.003h-120c-5.523 0-10 4.479-10 10.003 0 5.525 4.477 10.003 10 10.003zm-120 20.006h-33.649c9.555 7.384 19.671 14.078 30.273 20.006h3.376c5.523 0 10-4.478 10-10.003 0-5.524-4.477-10.003-10-10.003z" fill="#acd1fd"/><path d="m213.532 498.227c-16.978-2.571-33.385-6.883-49.032-12.752v-145.527c0-44.197 35.817-80.026 80-80.026h49.032c-44.183 0-80 35.829-80 80.026z" fill="#ade8f0"/><path d="m332.58 312.565h62.92c9.941 0 18 8.061 18 18.006v2.009c0 3.106-.723 6.169-2.111 8.947l-42.925 85.877c-1.823 3.647-7.025 3.647-8.848 0l-42.925-85.877c-1.389-2.778-2.111-5.841-2.111-8.947v-2.009c0-9.944 8.059-18.006 18-18.006z" fill="#fc9368"/><path d="m382.587 399.148-14.124 28.256c-1.823 3.647-7.025 3.647-8.848 0l-14.124-28.256z" fill="#012d4e"/><path d="m404.04 330.107c-6.366 0-12.177 2.38-16.59 6.3-1.964 1.744-4.856 1.744-6.82 0-4.414-3.919-10.224-6.3-16.59-6.3s-12.177 2.38-16.59 6.3c-1.964 1.744-4.856 1.744-6.82 0-4.414-3.919-10.224-6.3-16.59-6.3-3.348 0-6.542.658-9.46 1.852v-301.789c0-12.707 10.297-23.007 23-23.007h52.92c12.703 0 23 10.301 23 23.007v301.79c-2.918-1.195-6.112-1.853-9.46-1.853z" fill="#ee4424"/><path d="m413.5 30.162v247.034c0 12.703-10.297 23-23 23h-10.879c-12.703 0-23-10.297-23-23v-270.034h33.879c12.702 0 23 10.298 23 23z" fill="#fc7117"/><path d="m314.58 80.472v-57.465c0-12.707 10.297-23.007 23-23.007h52.92c12.703 0 23 10.301 23 23.007v57.464c0 11.049-8.954 20.006-20 20.006h-58.92c-11.045.001-20-8.956-20-20.005z" fill="#fd4343"/><path d="m356.621 23.007v77.471h-22.041c-11.046 0-20-8.957-20-20.006v-57.465c0-12.707 10.297-23.007 23-23.007h42.041c-12.703 0-23 10.301-23 23.007z" fill="#e43950"/><path d="m413.5 109.874h-98.92v-29.686h98.92z" fill="#f1ca50"/><path d="m413.5 109.874h-56.879c-8.195 0-14.838-6.643-14.838-14.838v-.01c0-8.195 6.643-14.838 14.838-14.838h56.879z" fill="#f9eecf"/></svg>